<?xml version="1.0" standalone="no"?><!DOCTYPE svg PUBLIC "-//W3C//DTD SVG 1.1//EN" "http://www.w3.org/Graphics/SVG/1.1/DTD/svg11.dtd"><svg class="icon" width="200px" height="200.00px" viewBox="0 0 1024 1024" version="1.1" xmlns="http://www.w3.org/2000/svg"><path fill="#dbdbdb" d="M901.830827 567.509333C960.02816 530.090667 1024.79616 445.824 1024.79616 256a42.666667 42.666667 0 1 0-85.333333 0c0 248.32-123.52 255.829333-128 256h-166.058667l-170.24-379.434667a81.621333 81.621333 0 0 0-84.864-46.592A81.706667 81.706667 0 0 0 319.174827 152.32L251.29216 512H167.110827l64.981333-345.301333a42.666667 42.666667 0 0 0-34.218667-78.165334 82.304 82.304 0 0 0-49.322666 60.672l-68.309334 363.008c-23.466667 1.706667-45.184 12.842667-60.288 31.189334a82.602667 82.602667 0 0 0-17.621333 68.522666c7.168 36.864 20.992 71.04 40.106667 101.376l-40.874667 217.472a42.666667 42.666667 0 1 0 83.84 15.786667l29.056-154.496c23.04 17.536 48.597333 31.786667 75.989333 42.112l-18.218666 96.554667A42.624 42.624 0 0 0 214.214827 981.333333a42.581333 42.581333 0 0 0 41.856-34.730666l17.749333-94.037334c7.168 0.512 14.421333 0.810667 21.717333 0.810667h409.557334l46.165333 102.826667a42.666667 42.666667 0 1 0 77.824-34.944l-30.464-67.84h140.885333c55.424 0 85.333333-43.946667 85.333334-85.333334 0-82.304-52.352-154.069333-122.965334-200.490666zM86.470827 597.333333h148.650666l-28.544 151.253334C145.734827 720.725333 99.61216 665.173333 86.470827 597.333333z m208.981333 170.666667c-1.92 0-3.84 0-5.717333-0.085333L321.94816 597.333333h105.472a42.666667 42.666667 0 1 0 0-85.333333H338.07616l63.317333-335.36 215.765334 480.853333c9.642667 21.461333 34.816 31.061333 56.362666 21.461334a42.666667 42.666667 0 0 0 21.461334-56.405334L683.67616 597.333333H726.129493c96.042667 0 213.333333 78.762667 213.333334 170.666667H295.494827z" /></svg>