<?xml version="1.0" standalone="no"?><!DOCTYPE svg PUBLIC "-//W3C//DTD SVG 1.1//EN" "http://www.w3.org/Graphics/SVG/1.1/DTD/svg11.dtd"><svg class="icon" width="200px" height="200.00px" viewBox="0 0 1024 1024" version="1.1" xmlns="http://www.w3.org/2000/svg"><path fill="#dbdbdb" d="M816.469333 738.389333a229.12 229.12 0 0 0 71.808-66.56h33.024a30.421333 30.421333 0 0 0 30.378667-30.378666 30.421333 30.421333 0 0 0-30.378667-30.421334h-2.645333c6.314667-19.370667 10.496-39.253333 11.52-60.245333h32.512a30.421333 30.421333 0 0 0 30.378667-30.378667 30.421333 30.421333 0 0 0-30.378667-30.421333h-33.536a230.613333 230.613333 0 0 0-14.677333-60.245333h6.272a30.421333 30.421333 0 0 0 30.421333-30.421334 30.421333 30.421333 0 0 0-30.421333-30.378666h-40.874667a233.6 233.6 0 0 0-181.845333-87.509334h-51.882667c-32.469333 0-63.914667 6.826667-92.202667 19.370667h54.485334c125.781333 0 228.992 103.253333 228.992 229.034667 0 116.309333-87.466667 212.736-200.149334 227.413333-6.826667 0.512-13.653333 1.066667-20.992 1.066667H380.458667a281.344 281.344 0 0 0 95.914666-86.485334 17.92 17.92 0 0 0 5.248 0.512h205.397334a30.421333 30.421333 0 0 0 30.421333-30.378666 30.421333 30.421333 0 0 0-30.421333-30.378667h-178.688a291.157333 291.157333 0 0 0 15.701333-60.288h235.306667a30.421333 30.421333 0 0 0 30.421333-30.378667 30.421333 30.421333 0 0 0-30.421333-30.421333h-232.661334a285.098667 285.098667 0 0 0-11.52-60.245333h172.928a30.421333 30.421333 0 0 0 30.378667-30.421334 30.421333 30.421333 0 0 0-30.378667-30.378666h-199.68a280.704 280.704 0 0 0-241.066666-137.813334h-19.882667A280.618667 280.618667 0 0 0 0 349.013333a249.429333 249.429333 0 0 1 189.184-86.485333 249.685333 249.685333 0 0 1 234.794667 164.565333H297.130667a137.429333 137.429333 0 0 0-107.946667-52.394666c-75.989333 1.066667-137.301333 62.378667-137.301333 138.368s61.866667 137.813333 137.813333 137.813333a136.96 136.96 0 0 0 110.08-55.04H168.746667a109.482667 109.482667 0 0 1 109.525333-109.525333h159.829333c1.066667 8.917333 1.578667 17.834667 1.578667 26.752a250.282667 250.282667 0 0 1-249.984 249.941333A250.88 250.88 0 0 1 5.248 681.813333a280.234667 280.234667 0 0 0 222.72 110.592h410.88c212.736 0 385.152-12.586667 385.152-28.8 0-10.496-84.394667-20.48-207.530667-25.173333z" /></svg>