<?xml version="1.0" standalone="no"?><!DOCTYPE svg PUBLIC "-//W3C//DTD SVG 1.1//EN" "http://www.w3.org/Graphics/SVG/1.1/DTD/svg11.dtd"><svg t="1760603145487" class="icon" viewBox="0 0 1024 1024" version="1.1" xmlns="http://www.w3.org/2000/svg" p-id="9318" xmlns:xlink="http://www.w3.org/1999/xlink" width="200" height="200"><path d="M231.14 750.11c0.11 39.27 0.13 78.55 0.44 117.83 0 5.41-1.6 7.24-7 7.06-10.41-0.36-20.85-0.28-31.27 0-4.93 0.11-6.92-1.48-6.91-6.65q0.16-100.38 0-200.75c0-5.76 2.38-6.85 7.41-6.79 17 0.21 33.95 0.28 50.91 0 5.34-0.11 7.52 1.64 9 6.83 12.76 45.95 25.82 91.81 38.81 137.7 0.63 2.22 1.38 4.4 2.18 6.93 2.81-2.43 2.87-5.51 3.67-8.17 13.59-44.95 27.28-89.87 40.42-134.95 2-6.8 5-8.56 11.62-8.37 16.23 0.47 32.49 0.31 48.73 0.06 5.07-0.07 7.35 1 7.33 6.75q-0.27 100.38 0 200.76c0 5-1.57 6.86-6.71 6.71-10.9-0.31-21.82-0.34-32.72 0-5.86 0.19-7.48-2.1-7.45-7.68 0.19-37.09 0.12-74.19 0.13-111.28 1.1-6.18 0.28-12.4 0.48-18.6 0-1.19-0.1-2.49-1.93-2-13.2 43.54-26.55 87-39.42 130.67-2 6.77-4.75 9.49-12 9a227.09 227.09 0 0 0-28.34 0c-5.8 0.31-7.91-2-9.36-7.32-12-43.63-24.29-87.18-36.49-130.75-4.01 3.9-1.55 8.57-1.53 13.01zM563.32 798.8c-0.41-8 0-16-0.32-24-0.63-14.8-4.76-28.58-13.2-40.88-13.11-19.1-32.42-25.73-54.42-27-34.48-2-62.22 15.72-72.94 48.07a116.23 116.23 0 0 0-0.89 72.18c6.63 21.4 20.3 37 41.6 44.38 29.41 10.23 58.55 8.06 87.05-4.24 3.17-1.36 4.19-3.45 4.13-6.76-0.16-8.23 0-16.47-0.06-24.71 0-9.53-0.58-9.87-9.4-5.83-15.91 7.28-32.54 11.26-50.06 9.26-15.19-1.74-24.93-11.66-27.72-26.61-0.91-4.89 0-7 5.62-6.88 13.8 0.34 27.62 0.11 41.43 0.12 14.05 0 28.11-0.18 42.15 0.09 5.42 0.09 7.3-1.81 7.03-7.19z m-46.75-30.14c-0.24 2.93-1.89 2.86-3.88 2.86h-41.3c-2.29 0-4.08 0.05-3.91-3.4 0.76-16.12 14.52-27.24 30.29-24.12 10.23 2 19.62 14.56 18.8 24.66zM825.33 799.16c-0.38-8.72 0-17.47-0.41-26.18a74.76 74.76 0 0 0-12.49-38.2c-12.8-19.31-32-26.42-54-27.82-31.44-2-57.21 12.08-70 38.48-10.19 21.06-11.43 43.49-8.43 66.12 2.89 22 11.9 41.48 31.73 53 33 19.26 67.16 16.36 101.29 2.34 3.12-1.28 3.32-3.69 3.29-6.5-0.07-7.76 0-15.52 0-23.28 0-11.1-0.35-11.36-10.21-6.8-15.26 7-31.27 10.52-48 9-15.68-1.4-25.61-11-28.83-26.34-1.06-5-0.36-7.5 5.8-7.3 13.8 0.43 27.64 0.13 41.46 0.13 14.06 0 28.13-0.16 42.19 0.08 5.01 0.11 6.83-1.67 6.61-6.73z m-52.61-27.52c-6.28-0.36-12.59-0.08-18.89-0.09-6.78 0-13.56-0.09-20.34 0-3.22 0.06-4.07-1.06-3.72-4.34 1.47-13.55 10.74-23.24 23.14-23.8 13.36-0.61 22.74 7.72 25.26 22 0.83 4.87-0.49 6.52-5.45 6.23z" p-id="9319" fill="#bfbfbf"></path><path d="M168.33 770.53c0 31 0.08 62.06 0 93.08-0.06 16.77-2.93 32.83-13.16 46.75-13.38 18.2-32.63 24-53.95 25.46a122.92 122.92 0 0 1-31.1-2c-4.24-0.8-6.3-2.44-6.16-7.12 0.29-9.93 0.24-19.88 0-29.81-0.1-5 1.93-6.31 6.66-5.43 9.3 1.75 18.65 3.15 28.15 1.37 11.37-2.12 17.63-8.31 19.11-19.73a126.72 126.72 0 0 0 0.84-16q0.09-93.07 0-186.16c0-10.09 0-10.1 9.82-10.12 10.67 0 21.34 0.26 32-0.12 6.06-0.22 7.94 2 7.9 8-0.22 33.93-0.11 67.87-0.11 101.8z" fill="#bfbfbf" p-id="9320"></path><path d="M585 793.37c0-14.93-0.18-27.29 0.1-39.64 0.1-4.51-1.4-5.68-5.78-5.73-15-0.19-14.79-0.37-15.06-15.71-0.1-5.35 1.48-8.92 6.35-10.81 14.54-5.65 21.31-17.13 26-31.38 5.85-17.75 1.74-14 20.4-14.29 17.17-0.23 17.17 0 17.17 17.26 0 16.76 0 16.76 16.45 16.76 5.57 0 11.15 0.14 16.72 0 4.09-0.13 5.62 1.65 5.57 5.63-0.12 9-0.09 17.93 0 26.89 0.07 4.45-2 5.91-6.26 5.84-9.21-0.17-18.42 0.1-27.62-0.11-3.82-0.08-5 1.23-5 5 0.17 23.5 0 47 0.22 70.51 0.1 9.71 4.87 13.71 14.77 13.81 6.43 0.07 12.5-1.56 18.43-3.66 5-1.79 7.32-0.7 7.22 4.92-0.16 8.47-0.11 17 0 25.44 0.05 3.53-0.95 5.85-4.54 7.25-18.21 7.06-36.79 8.9-55.47 2.89-17.66-5.67-25.67-19.56-28.49-37-2.36-15.4-0.58-30.96-1.18-43.87zM875.13 731.34c3.42-4.15 5.86-7.41 8.6-10.39 12.87-14 29.25-15.59 46.75-13 2.58 0.38 3.61 2.09 3.61 4.62 0 12.35-0.06 24.7 0 37.05 0 4.7-2.73 5-6.3 4.35a56.49 56.49 0 0 0-22.36 0.19c-13.78 3.12-21.31 11-23.74 25-1.42 8.15-1.27 16.39-1.26 24.63 0 21.31-0.18 42.62 0.12 63.93 0.08 5.83-1.82 7.54-7.53 7.34-11.37-0.4-22.76-0.32-34.14 0-5.22 0.13-7.36-1.44-7.34-7q0.23-75.56 0-151.11c0-5.23 1.5-7.47 7-7.22 8 0.37 16 0.41 24 0 5.06-0.26 7.62 1.51 8.63 6.4 1 4.71 2.42 9.34 3.96 15.21z" p-id="9321" fill="#bfbfbf"></path><path d="M759.49 393.07l-3 6.17c-4.87 4-9.4 1.13-10.48-2.88-3.6-13.3-15.52-16.63-25.1-22.88-7.23-4.72-15.41-8.65-13.7-19.75 0.5-3.24-2.8-3.46-5-4-4.76-1.18-8.37-3.57-9.86-8.5 0.35-5.89 3.51-10.83 5.9-15.89 9.72-20.48 18.4-41.47 29.21-61.45 7-4.88 15.25-4 23.06-4.82 10.81-1.13 21.57-2.79 32.45-3.3a17.26 17.26 0 0 0 7.54-2.42c1.43-0.75 2.95-0.43 4.44-0.35a97.9 97.9 0 0 0 14.11-0.65c3.57-0.92 7.42-5.62 10.13-3.13s-0.8 7.15-2 10.63c-4.78 14-10.76 27.4-19.69 39.32-5.48 4.5-7.56 12.39-14.63 14.76 1.15-1 3.05-1.45 4.56-2.67 1.8-1.47 4.09-1.68 6.39-1.44s3.64 1.11 2 3.6c-7 10.72-14.41 21-24.85 28.74-1.77 5.65 1.3 4.56 4.53 3.27 4.15 2.43-0.42 4.87 0 7.3-4.74 5.79-4.44 13.41-7.25 19.91l-3 7.69c-5.43 2.67-3.25 8.75-5.76 12.74z" fill="#bfbfbf" p-id="9322"></path><path d="M695.26 340.46c2.83 5.83 7.92 6.36 13.48 5.65 1.93-0.24 4-0.81 5.38 1 1.58 2.1-0.59 3.41-1.51 5-4 6.86-1.3 13.06 8.51 17.12 5.75 2.38 10.1 6.82 16.06 9a14.44 14.44 0 0 1 9.48 11.8c0.85 5.11 4.36 8.47 9.8 9.27-20.26 44.24-52 75.31-100.31 87.29-6.86 5.63-14.49 6.09-20.25 1.23-2.37-2.9-1.33-5.8-0.21-8.86q24.48-66.3 52.68-131.09c1.33-3.14 1.63-7.77 6.89-7.41z" fill="#bfbfbf" p-id="9323"></path><path d="M629.78 359.32c6.69-21.56 16.52-41.8 26.47-61.94a802.46 802.46 0 0 1 40.34-72.84c8.87-8.48 8.85-8.47 14.93 2.45 3.38 6.07 7.7 11.6 10.9 17.71a37.44 37.44 0 0 1 3.79 20.69c-9.48 19.66-18.58 39.47-27.73 59.27-5.62 12.18-10.17 24.84-16.55 36.68-8.61 2.86-16 7-20.54 15.61-1.9 3.66-5.8 3.93-9.46 1.67-6.54-4-13.12-8-19.81-11.78-3.12-1.76-3.22-4.49-2.34-7.52z" fill="#bfbfbf" p-id="9324"></path><path d="M769.52 118.45c15.13-19.86 30.91-39.15 51.11-54.14 8.76-6.51 17.19-6.07 26.23 0.34C857.75 72.38 865 82.57 867.4 96c2.63 15 2.59 29.83-1.56 44.55-18.84 2.09-37.55 5.22-56.41 7.07-4 0.4-8.12 1.29-11.84-1.26-2.68-2.94 0.55-4.78 1.33-7.06a147.86 147.86 0 0 0 8.88-13 105.34 105.34 0 0 1-8.34 12.11c-3 2.59-2.44 8.52-8.1 8.59-2.38-0.92-2.67-3.09-3.24-5.2-1.64-6.1-5.38-11.21-8.06-16.8-2.31-4.87-8.26-2.5-10.54-6.55z" fill="#bfbfbf" p-id="9325"></path><path d="M629.78 359.32c3.41 6.27 11.55 5.58 15.79 10.7 0.69 0.82 2.22 0.88 3.21 1.52 8.77 5.72 8.87 5.79 14.28-3.5 2.35-4 5.1-6.68 10.12-6.89 2.25-0.09 4.45-1.62 6.68-2.5 3.28 3.1 0.88 6.08-0.28 9-10.31 26.07-21.42 51.82-31.35 78-3.43 9.05-6.83 18.1-10.28 27.14-1 2.69-1.69 5.64-4.75 6.91-5.28 1.26-8.42-0.94-10.89-5.7-4.3-8.29-8.4-16.72-13.23-24.7-3.4-5.62-1.11-11.14-1.15-16.71 4.83-25.12 11.75-49.67 21.85-73.27z" fill="#bfbfbf" p-id="9326"></path><path d="M637 486.51c6.37 3.31 12.76-1.65 19.14 0 20 5.14 38.15 0.43 55-10.63 2.59-1.7 5.09-3.54 8.25-4.64-7.94 20.38-24.23 32.53-44.58 42.81 9.81 3.41 16-1.87 23-3.9-6.3 19.29-28.92 29.23-76 33.67 3.69 6.94 9.61 12.78 9.31 22.58-4.83-6.72-9.1-12.14-14.2-17-3.84-3.65 0.27-8.64 0.9-12.89 0.67-4.6 3.27-8.91 5-13.36a17.11 17.11 0 0 1 1-11.67c2.74-6.63 4.49-13.62 7.22-20.26 1.23-2.74 2.06-5.53 5.96-4.71z" fill="#bfbfbf" p-id="9327"></path><path d="M607.93 432.64c1.84 16.5 13.45 28.55 19.78 43 0.52 1.19 2.8 1.6 4.26 2.38 3 2.26 2.12 5.09 1 7.85a353.63 353.63 0 0 0-8.37 23.95c-1.91 6.21-6.81 10.36-9.54 15.93-13.28 36.12-25.5 72.61-37.35 109.22-0.8 2.49-1.88 4.89-2.84 7.33a4.29 4.29 0 0 1-5.66-1.5Q584 596 598.82 551.21c2.66-8.05 2.5-8.15-6.2-8.25-9-0.11-17.42 3.51-27.82 5 7-6.2 13.75-9.41 20.73-12.35 1.27-0.53 3-0.76 3.32-2.43 0.38-2.24-1.65-2.69-3.11-3.4-5-2.45-9.31-5.94-15.06-10.5 7.52 1.47 13.2 3 19 3.63 9.43 1.07 10.17 0.17 8.13-9.21-3.22-14.58-9.81-27.7-17.81-40.28-1.6-2.52-3.9-4.75-4.63-9 9.6 4.8 16.27 11.65 24 19.65 3.01-18.07 3.73-35.07 8.56-51.43z" fill="#bfbfbf" p-id="9328"></path><path d="M848.39 187.05c-7.41 15.79-15.79 31-26.26 45-4.3-1-4.63-4.28-3.34-7.3a12.78 12.78 0 0 0 0.44-9.69c-0.94-2.86 1.5-7.21-1.72-8.77-6.52-3.16-11.37-9.15-18.72-10.77a5.83 5.83 0 0 0-5.33 1.57 7.24 7.24 0 0 1-5.34 1.87c-10-0.62-10.64-0.5-21.62 4.55a4.11 4.11 0 0 1-4.74-0.44c-1.87-2.6 0.17-4.41 1.21-6.5 6.53-13.11 15.22-24.91 22.54-37.54a4.33 4.33 0 0 1 2.71-1.84c9.64-1.26 17.86 0.86 27 5.33 11.06 5.4 19.78 13.38 29.8 19.8 1.85 1.18 4.15 1.81 3.37 4.73z" fill="#bfbfbf" p-id="9329"></path><path d="M848.39 187.05c-8.18-0.23-12.32-6.91-17.72-11.41-3.58-3-6.9-5.9-11.77-6.48-1.61-0.19-3.64-0.7-4.62-1.81-7.06-8-16.84-7.06-26-8.25-0.66-6.34 2.34-11 9.17-14.39a566.78 566.78 0 0 0 60.63-7.37c3.21-0.55 6.92-2.13 7.75 3.19-2.71 16.67-9.95 31.64-17.44 46.52z" fill="#bfbfbf" p-id="9330"></path><path d="M762.57 202.88l4.46-4.72c1-1 2.11-3.08 3-3 7.13 0.89 11-1.58 10.86-9.2 0-0.78 1.49-1.07 2.49-0.69 1.46 0.54 2.56 1.45 2.46 3.16s-0.62 3.35-0.42 5a2.91 2.91 0 0 0 3.09 2.52 2.08 2.08 0 0 0 2.17-2.37c-0.42-5.68 2.88-4.46 6-3.22 5.14 2.06 10.55 3.64 14.54 7.89a6 6 0 0 0 3 1.9c7.65 1.36 12.33 4.41 8.57 13.21-0.58 1.36 0.68 2.74 1.74 3.78 2.91 2.83 3 5.79-0.66 7.61-4 2-2.26 4.65-1.72 7.33-5.07 5.21-8.5 11.88-14.58 16.18-2.21 2.06-3.22 6.1-7.6 4.6-3.14-3.63-0.79-6.09 1.74-8.63 4.73-4.75 4.43-10.11-1.05-13.76-4.85-3.22-10.58-4.79-15.62-7.71-0.81-0.47 0-0.58-0.62-0.2-8.18 5-16.42-2-24.57 0.21-3 0.84-5.78 0.65-7.69-2.33 0.09-6.9 5.3-15.64 10.41-17.56z" fill="#bfbfbf" p-id="9331"></path><path d="M615.1 525.76Q623.55 501.9 632 478q16.44-41.29 32.91-82.58c4.92-12.29 10-24.53 15-36.8l43.5-94.14c1.77-2.57 0.92-6.05 2.94-8.55 2.79-1.67 5.57-3.89 8.4-0.07 1.61 5.44-4.49 6.94-5.63 11q-18.51 36.06-33.81 73.59c-12.37 25.71-22.64 52.32-33.14 78.83-8.81 22.23-17.63 44.48-25.11 67.22l-14.1 36.68c-3.85-2.78-5.5 0.98-7.86 2.58z" fill="#bfbfbf" p-id="9332"></path><path d="M448.16 594.54v31.27c0 2.66 0.41 5.56-3.76 5.51s-3.51-3.15-3.53-5.69c-0.06-7.51-0.2-15 0-22.53 0.14-4.45-1-6.73-6-6.63-10.91 0.21-21.82 0.15-32.72-0.05-4.07-0.08-5.69 1.45-5.62 5.5 0.15 7.75 0.11 15.51 0 23.26 0 2.48 0.83 5.81-3.31 6s-3.65-3-3.65-5.6v-63.25c0-2.53-0.55-5.78 3.7-5.52 3.58 0.22 3.22 3 3.23 5.4 0.05 7.51 0.12 15 0 22.53-0.06 3.65 1.34 5.21 5.11 5.16q17.08-0.21 34.17 0c3.76 0.05 5.17-1.31 5.08-5.08-0.19-7.51-0.07-15 0-22.54 0-2.62-0.38-5.62 3.78-5.52 4.32 0.1 3.41 3.33 3.43 5.79 0.13 10.67 0.08 21.33 0.09 31.99zM465.25 594.17c0-10.67 0.1-21.34-0.05-32-0.05-4 1.43-5.6 5.54-5.54 12.61 0.17 25.22 0 37.83 0.08 2.4 0 5.24-0.25 5.24 3.34s-3 3.18-5.3 3.2c-10.18 0.08-20.37 0.19-30.55 0-4.39-0.09-5.79 1.55-5.92 5.93-0.61 20.94-0.73 20.94 20.18 20.94h11.64c2.14 0 4.71-0.28 4.83 2.93s-2.54 3-4.63 3.07c-8.24 0.08-16.5 0.3-24.73 0-5.24-0.21-7.64 1.27-7.21 6.91a135.39 135.39 0 0 1 0.05 16c-0.18 4.37 1.48 6 5.91 5.89 10.43-0.24 20.86-0.12 31.28 0 2.42 0 5.8-1.06 5.6 3.42-0.17 3.81-3.16 3-5.39 3.06-12.85 0.08-25.7-0.08-38.55 0.11-4.45 0.06-5.93-1.65-5.84-6 0.22-10.51 0.07-20.92 0.07-31.34zM227.58 556.76c-8-0.31-16 0.15-24-0.15-4.84-0.19-6.34 1.76-6.24 6.37 0.21 10.41 0.06 20.83 0 31.24v32.71c0 2.39 0.5 4.36 3.55 4.33s3.62-1.85 3.62-4.31c0-5.81 0.19-11.63 0-17.43-0.11-4 1.48-5.68 5.54-5.58 6.05 0.15 12.12 0.28 18.15-0.12 13.38-0.88 22.08-10.66 21.85-24.14a23.23 23.23 0 0 0-22.47-22.92z m11.84 34.53c-2 3.15-4.93 5.55-8.82 5.69-7.25 0.25-14.5 0.11-21.75 0.23-3.21 0-4.19-1.68-4.17-4.52v-12.32c-0.07-17.75-0.07-17.58 20.79-17.13 7.33 0.15 12.59 2.87 15.72 9.44s1.9 12.78-1.77 18.61z" fill="#bfbfbf" p-id="9333"></path><path d="M703.68 213a215.65 215.65 0 0 1 15.52-24.64c10.25-7.13 31.54-4.72 40.47 4.58a9.73 9.73 0 0 1 1.93 4.23c-4.36 11.17-10.69 21.34-16.25 31.9a4.45 4.45 0 0 1-4.75 2.53c-4.42-2.78-6.58-7.9-11.68-10.28-6.78-3.17-13.14-7.11-21.08-6.17a3.64 3.64 0 0 1-4.16-2.15z" fill="#bfbfbf" p-id="9334"></path><path d="M188 628.59c-0.29-0.73-0.69-1.87-1.16-3q-13.44-32.18-26.9-64.33c-1-2.28-1.86-4.45-4.94-4.54-3.28-0.1-3.92 2.42-4.82 4.58q-13.4 31.84-26.65 63.7c-0.79 1.91-3.38 4.55 0.36 6 2.92 1.15 5-0.32 6.19-3.33 1.91-5 4.24-9.79 5.95-14.83 1.33-3.88 3.64-5.16 7.6-5 7 0.23 14.07 0.29 21.08-0.05 5.07-0.24 8.12 1.31 9.72 6.41s4.06 9.83 6.1 14.75c1.09 2.64 3.34 2.38 5.53 2.32 1.43-0.06 2.26-0.68 1.94-2.68z m-22.65-26.32q-10.51 0.09-21 0c-2 0-4.26-0.47-3.11-3.33 4.1-10.23 8.35-20.4 13.34-32.53 6 11.48 9.66 21.33 13.55 31.1 1.13 2.91 0.7 4.74-2.79 4.76zM313.6 628.91c-0.43-1.08-0.86-2.21-1.33-3.32q-13.45-32.13-26.89-64.26c-1-2.31-1.71-4.54-4.81-4.62s-4 2.23-4.92 4.49c-8.87 21.21-17.78 42.4-26.53 63.66-0.74 1.8-3.68 4.46 0.22 6 2.89 1.12 5-0.28 6.21-3.3 1.92-5 4.3-9.76 6-14.79 1.33-4 3.76-5.07 7.64-5 7.5 0.21 15 0.28 22.52 0 4.09-0.15 6.18 1.55 7.54 5.2 1.94 5.21 4.27 10.27 6.34 15.43 1.15 2.88 3.43 3.12 6 2.79 1.21-0.13 2.41-0.54 2.01-2.28z m-22.92-26.62h-20.31c-2.87 0-4.93-0.78-3.46-4.29 4.24-10.19 8.51-20.38 13.61-32.55 5 12.25 9.28 22.63 13.45 33 1.25 3.15-0.74 3.84-3.29 3.84zM351.51 556.37c8.78 0.45 17.27 3.79 23.22 12.12 1.16 1.62 3.1 3.47 0.29 5.52-2.38 1.73-3.66 0.66-5.4-1.21-8.86-9.52-20.26-12.26-30.69-7.63s-17.91 18-16.84 30.56c1.9 22.29 21.31 35.43 39.45 26.7 3.54-1.7 6.77-3.88 8.87-7.24 1.74-2.79 3.66-3.82 6.38-1.58 3 2.5 0.23 4.34-1.05 6.06-11.8 15.77-36.7 16.47-50.33 1-10.94-12.45-14-26.9-7.36-42.52 6-14.15 17.02-21.23 33.46-21.78z" fill="#bfbfbf" p-id="9335"></path><path d="M703.68 213c13.62-5.12 23.53 3.42 34 9.43 2.95 1.69 2.81 5.4 3.1 8.53 2.31 2.3 0.79 4.51-0.18 6.71-3.32 7.5-6.91 14.82-13 20.52-1.41 2.12-2.82 4.23-4.22 6.35 1-10.43-5.5-18.22-9.64-26.81-1.55-3.21-4.08-6-5.49-9.24-2.54-5.9-5.35-9.72-11.64-3.92z" fill="#bfbfbf" p-id="9336"></path><path d="M759.63 197.31l-1.57-3.17c0.37-2.19 0.51-4.54-0.45-6.43-3.14-6.2-1.88-10.7 5.3-13.21-3.47-4.36-7.6-4.18-11.64-4.53-5.82-0.52-12 0.72-17.1-3.55a31.49 31.49 0 0 1 6-8.82c4.93-4.58 9.54-9.44 12.5-15.6 1.77-3.71 4.49-4.77 8.28-3.1a53.3 53.3 0 0 0 15.3 4.1c4.84 0.57 7.86 3.54 8.13 8.63 0.13 2.41 0.75 4.78 0.52 7.2-1.45 8.33-8.72 13.35-11.87 20.82-2.16 5.15-5.86 9.61-8.46 14.63-0.99 1.88-2.13 3.9-4.94 3.03z" fill="#bfbfbf" p-id="9337"></path><path d="M734.17 166.42c11.06-1.5 21.89-1.33 32.09 4.06 3.21 1.7 3.71 4.21 2.59 7.32s-3 4.26-6.1 2.22c-1-0.7-2.31-1.21-3.22 0-1.06 1.48-0.12 2.78 0.92 3.81 4.74 4.74 1.65 7.6-2.39 10.26-8.5-3.91-16.69-8.36-26.74-4-3.58 1.55-7.52-4.29-12.12-1.81 4.61-7.51 9.26-15.05 14.97-21.86z" fill="#bfbfbf" p-id="9338"></path><path d="M782.9 159.5c-2.11-11.53-2.11-11.53-13.64-13.66-5.37-1-16.57 2.72-20.78 6.12-2.57 2.08-4.86 4.81-8.34 5.64 9.11-13.56 18.59-26.85 29.38-39.15 3.88 1 4.68-6.72 8.67-3.54 2.42 1.93 3.46 5.62 5 8.56 3.89 7.26 9.74 13.81 8.46 23 0.51 5.82-4.06 9-6.84 13.1a2.19 2.19 0 0 1-1.91-0.07z" fill="#bfbfbf" p-id="9339"></path><path d="M953.12 668.16c-1.36 4.37-2.71 8.74-4.08 13.11-0.77 2.48-0.92 5.52-4.57 5.6s-3.79-3-4.53-5.49c-1.09-3.63-2.18-7.25-4.83-10.78 0 3.68 0.08 7.37 0 11-0.07 2 0.58 4.83-2.63 5s-3-2.58-3-4.65c-0.09-6.77-0.06-13.55 0-20.33 0-2.49 0-4.94 3.62-5 2.79 0 5.16 0 6 3.52a73.2 73.2 0 0 0 6.18 16.85c1.66-5.27 3.56-10.48 4.88-15.84 1-4 3.26-4.82 6.87-4.55 4.35 0.33 3.18 3.56 3.23 5.94 0.14 6.29 0.11 12.59 0 18.88 0 2.22 0.81 5.37-3.1 5.21-3.34-0.13-2.62-2.93-2.67-4.94-0.11-4.58 0-9.16 0-13.74z" fill="#bfbfbf" p-id="9340"></path><path d="M569.25 640.81l5.66 1.5q-5.76 19.34-11.53 38.67c-1.52 5.08-3.39 9.93-10.6 12.45 5.74-18.34 11.11-35.43 16.47-52.62z" fill="#bfbfbf" p-id="9341"></path><path d="M914.63 656.68a37.11 37.11 0 0 1 4.35 0c2 0.23 4.84-1.05 5.36 2.09s-2.26 3.08-4.36 3.37c-3 0.41-3 2.73-3 4.91 0 4.59 0.08 9.19-0.08 13.78-0.09 2.42 1 6-3.28 5.85s-2.71-3.82-2.87-6.15c-0.24-3.37 0-6.76-0.07-10.15-0.05-4 1.16-8.67-5.4-8.74-1.35 0-1.83-1.39-1.76-2.72a2.12 2.12 0 0 1 2.39-2.1h8.7z" fill="#bfbfbf" p-id="9342"></path><path d="M729.07 266.87l4.23-10.19c3-12.31 7.55-23.83 17.36-32.52 12.49 1.59 21.78 9.4 31.54 16.28a34.53 34.53 0 0 0 6.92 3.82c8.45 3.43 8.88 4.92 3.82 12.46-7.14 4.66-15.48 2.68-23.21 3.93-11.09 1.79-22.41 2.25-33.65 3-2.98 0.14-4.8 1.88-7.01 3.22z" fill="#bfbfbf" p-id="9343"></path><path d="M792.94 256.72c1.75-4.82 0.59-8-4.89-8.91-4-0.65-7.32-3.16-10-5.68-7.87-7.46-18-10.72-27.09-16-2-2.91-1.25-4.91 2-6 7.28-1.16 14.4-3.23 21.73 0.7 3.25 1.74 4.9-1.83 6.27-4.43 1.18-2.24 3.75-3.94 4.8-1.17 2.88 7.6 9.87 8.76 15.9 11 6.43 2.43 6.27 9.22 10.06 13.37 1.44 1.58-2 3.87-4 5.13-3 1.94-6.53 3.3-7.52 7.3l-4.29 3.15z" fill="#bfbfbf" p-id="9344"></path><path d="M784.09 159.11q3.79-6.33 7.6-12.66l7-9.1c1.42-0.31 2 0.21 1.73 1.68-1 1.89-2 3.79-3 5.68a65.07 65.07 0 0 0-9.17 14.39l-1.37 1.56c-1.48 0.53-2.35-0.12-2.79-1.55z" fill="#bfbfbf" p-id="9345"></path><path d="M800.47 139l-1.73-1.68 13.88-19 1.56 1.09z" fill="#bfbfbf" p-id="9346"></path><path d="M784.09 159.11l2.83 1.55q-11.16 18.84-22.28 37.69a46.28 46.28 0 0 0-2.07 4.53c-3.88 5.36-6.7 11.3-9.56 17.23-0.68 2-1.35 4-2 6-6.25 6.34-8.56 15-13.05 22.35-1.63 2.67-3.09 5.44-4.63 8.17-2.41-1.46-3.94 0.51-5.72 1.48l13.22-27.23c7.2-10.68 12.74-22.3 18.83-33.62l23.24-37.76c0.4-0.11 0.8-0.24 1.19-0.39z" fill="#bfbfbf" p-id="9347"></path></svg>